<?xml version="1.0" encoding="UTF-8" standalone="no"?>
<!DOCTYPE svg PUBLIC "-//W3C//DTD SVG 1.1//EN"
 "http://www.w3.org/Graphics/SVG/1.1/DTD/svg11.dtd">
<!-- Generated by graphviz version 2.36.0 (20140111.2315)
 -->
<!-- Title: anab__ParticleID Pages: 1 -->
<svg width="192pt" height="274pt"
 viewBox="0.00 0.00 192.00 274.00" xmlns="http://www.w3.org/2000/svg" xmlns:xlink="http://www.w3.org/1999/xlink">
<g id="graph0" class="graph" transform="scale(1 1) rotate(0) translate(4 270)">
<title>anab__ParticleID</title>
<polygon fill="white" stroke="none" points="-4,4 -4,-270 188,-270 188,4 -4,4"/>
<!-- anab::ParticleID -->
<g id="node1" class="node"><title>anab::ParticleID</title>
<polygon fill="none" stroke="black" points="12,-237 12,-259 173,-259 173,-237 12,-237"/>
<text text-anchor="start" x="26" y="-245.3" font-family="mono" font-weight="bold" font-size="14.00">anab::ParticleID</text>
<text text-anchor="start" x="40" y="-221.8" font-family="mono" font-size="14.00">int</text>
<text text-anchor="start" x="71" y="-221.8" font-family="mono" font-size="14.00" fill="blue">fPdg</text>
<text text-anchor="start" x="40" y="-200.8" font-family="mono" font-size="14.00">int</text>
<text text-anchor="start" x="71" y="-200.8" font-family="mono" font-size="14.00" fill="blue">fNdf</text>
<text text-anchor="start" x="15" y="-179.8" font-family="mono" font-size="14.00">double</text>
<text text-anchor="start" x="71" y="-179.8" font-family="mono" font-size="14.00" fill="blue">fMinChi2</text>
<text text-anchor="start" x="15" y="-158.8" font-family="mono" font-size="14.00">double</text>
<text text-anchor="start" x="71" y="-158.8" font-family="mono" font-size="14.00" fill="blue">fDeltaChi2</text>
<text text-anchor="start" x="15" y="-137.8" font-family="mono" font-size="14.00">double</text>
<text text-anchor="start" x="71" y="-137.8" font-family="mono" font-size="14.00" fill="blue">fChi2Proton</text>
<text text-anchor="start" x="15" y="-116.8" font-family="mono" font-size="14.00">double</text>
<text text-anchor="start" x="71" y="-116.8" font-family="mono" font-size="14.00" fill="blue">fChi2Kaon</text>
<text text-anchor="start" x="15" y="-95.8" font-family="mono" font-size="14.00">double</text>
<text text-anchor="start" x="71" y="-95.8" font-family="mono" font-size="14.00" fill="blue">fChi2Pion</text>
<text text-anchor="start" x="15" y="-74.8" font-family="mono" font-size="14.00">double</text>
<text text-anchor="start" x="71" y="-74.8" font-family="mono" font-size="14.00" fill="blue">fChi2Muon</text>
<text text-anchor="start" x="15" y="-53.8" font-family="mono" font-size="14.00">double</text>
<text text-anchor="start" x="71" y="-53.8" font-family="mono" font-size="14.00" fill="blue">fMissingE</text>
<text text-anchor="start" x="15" y="-32.8" font-family="mono" font-size="14.00">double</text>
<text text-anchor="start" x="71" y="-32.8" font-family="mono" font-size="14.00" fill="blue">fMissingEavg</text>
<text text-anchor="start" x="15" y="-11.8" font-family="mono" font-size="14.00">double</text>
<text text-anchor="start" x="71" y="-11.8" font-family="mono" font-size="14.00" fill="blue">fPIDA</text>
<polygon fill="none" stroke="black" points="8.5,-3.5 8.5,-262.5 175.5,-262.5 175.5,-3.5 8.5,-3.5"/>
</g>
</g>
</svg>
