<?xml version="1.0" encoding="UTF-8" standalone="no"?>
<!DOCTYPE svg PUBLIC "-//W3C//DTD SVG 1.1//EN"
 "http://www.w3.org/Graphics/SVG/1.1/DTD/svg11.dtd">
<!-- Generated by graphviz version 2.36.0 (20140111.2315)
 -->
<!-- Title: anab__Calorimetry Pages: 1 -->
<svg width="306pt" height="210pt"
 viewBox="0.00 0.00 306.00 210.00" xmlns="http://www.w3.org/2000/svg" xmlns:xlink="http://www.w3.org/1999/xlink">
<g id="graph0" class="graph" transform="scale(1 1) rotate(0) translate(4 206)">
<title>anab__Calorimetry</title>
<polygon fill="white" stroke="none" points="-4,4 -4,-206 302,-206 302,4 -4,4"/>
<!-- anab::Calorimetry -->
<g id="node1" class="node"><title>anab::Calorimetry</title>
<polygon fill="none" stroke="black" points="11,-174 11,-196 287,-196 287,-174 11,-174"/>
<text text-anchor="start" x="78.5" y="-182.3" font-family="mono" font-weight="bold" font-size="14.00">anab::Calorimetry</text>
<text text-anchor="start" x="113" y="-158.8" font-family="mono" font-size="14.00">double</text>
<text text-anchor="start" x="169" y="-158.8" font-family="mono" font-size="14.00" fill="blue">fKineticEnergy</text>
<text text-anchor="start" x="30" y="-137.8" font-family="mono" font-size="14.00">vector&lt; double &gt;</text>
<text text-anchor="start" x="169" y="-137.8" font-family="mono" font-size="14.00" fill="blue">fdEdx</text>
<text text-anchor="start" x="30" y="-116.8" font-family="mono" font-size="14.00">vector&lt; double &gt;</text>
<text text-anchor="start" x="169" y="-116.8" font-family="mono" font-size="14.00" fill="blue">fdQdx</text>
<text text-anchor="start" x="30" y="-95.8" font-family="mono" font-size="14.00">vector&lt; double &gt;</text>
<text text-anchor="start" x="169" y="-95.8" font-family="mono" font-size="14.00" fill="blue">fResidualRange</text>
<text text-anchor="start" x="30" y="-74.8" font-family="mono" font-size="14.00">vector&lt; double &gt;</text>
<text text-anchor="start" x="169" y="-74.8" font-family="mono" font-size="14.00" fill="blue">fDeadWireResR</text>
<text text-anchor="start" x="113" y="-53.8" font-family="mono" font-size="14.00">double</text>
<text text-anchor="start" x="169" y="-53.8" font-family="mono" font-size="14.00" fill="blue">fRange</text>
<text text-anchor="start" x="30" y="-32.8" font-family="mono" font-size="14.00">vector&lt; double &gt;</text>
<text text-anchor="start" x="169" y="-32.8" font-family="mono" font-size="14.00" fill="blue">fTrkPitch</text>
<text text-anchor="start" x="14" y="-11.8" font-family="mono" font-size="14.00">vector&lt; TVector3 &gt;</text>
<text text-anchor="start" x="169" y="-11.8" font-family="mono" font-size="14.00" fill="blue">fXYZ</text>
<polygon fill="none" stroke="black" points="8,-3 8,-199 290,-199 290,-3 8,-3"/>
</g>
</g>
</svg>
