<?xml version="1.0" encoding="UTF-8" standalone="no"?>
<!DOCTYPE svg PUBLIC "-//W3C//DTD SVG 1.1//EN"
 "http://www.w3.org/Graphics/SVG/1.1/DTD/svg11.dtd">
<!-- Generated by graphviz version 2.36.0 (20140111.2315)
 -->
<!-- Title: legend Pages: 1 -->
<svg width="378pt" height="152pt"
 viewBox="0.00 0.00 378.00 152.00" xmlns="http://www.w3.org/2000/svg" xmlns:xlink="http://www.w3.org/1999/xlink">
<g id="graph0" class="graph" transform="scale(1 1) rotate(0) translate(4 148)">
<title>legend</title>
<polygon fill="white" stroke="none" points="-4,4 -4,-148 374,-148 374,4 -4,4"/>
<!-- A -->
<g id="node1" class="node"><title>A</title>
<ellipse fill="none" stroke="black" cx="27" cy="-18" rx="27" ry="18"/>
<text text-anchor="middle" x="27" y="-14.3" font-family="mono" font-size="14.00">A</text>
</g>
<!-- B -->
<g id="node2" class="node"><title>B</title>
<ellipse fill="none" stroke="black" cx="343" cy="-18" rx="27" ry="18"/>
<text text-anchor="middle" x="343" y="-14.3" font-family="mono" font-size="14.00">B</text>
</g>
<!-- A&#45;&gt;B -->
<g id="edge1" class="edge"><title>A&#45;&gt;B</title>
<path fill="none" stroke="orange" d="M64.2578,-18C124.569,-18 244.844,-18 305.389,-18"/>
<polygon fill="orange" stroke="orange" points="64.2314,-14.5001 54.2314,-18 64.2313,-21.5001 64.2314,-14.5001"/>
<polygon fill="orange" stroke="orange" points="305.622,-21.5001 315.622,-18 305.622,-14.5001 305.622,-21.5001"/>
<text text-anchor="middle" x="185" y="-21.8" font-family="Times,serif" font-size="14.00">association(s) between A and B</text>
</g>
<!-- C -->
<g id="node3" class="node"><title>C</title>
<ellipse fill="none" stroke="black" cx="27" cy="-72" rx="27" ry="18"/>
<text text-anchor="middle" x="27" y="-68.3" font-family="mono" font-size="14.00">C</text>
</g>
<!-- D -->
<g id="node4" class="node"><title>D</title>
<ellipse fill="none" stroke="black" cx="343" cy="-72" rx="27" ry="18"/>
<text text-anchor="middle" x="343" y="-68.3" font-family="mono" font-size="14.00">D</text>
</g>
<!-- C&#45;&gt;D -->
<g id="edge2" class="edge"><title>C&#45;&gt;D</title>
<path fill="none" stroke="black" d="M54.2314,-72C110.22,-72 241.526,-72 305.575,-72"/>
<polygon fill="black" stroke="black" points="305.622,-75.5001 315.622,-72 305.622,-68.5001 305.622,-75.5001"/>
<text text-anchor="middle" x="185" y="-75.8" font-family="Times,serif" font-size="14.00">C has some form of D&#39;s as data members</text>
</g>
<!-- E -->
<g id="node5" class="node"><title>E</title>
<ellipse fill="none" stroke="black" cx="27" cy="-126" rx="27" ry="18"/>
<text text-anchor="middle" x="27" y="-122.3" font-family="mono" font-size="14.00">E</text>
</g>
<!-- F -->
<g id="node6" class="node"><title>F</title>
<ellipse fill="none" stroke="black" cx="343" cy="-126" rx="27" ry="18"/>
<text text-anchor="middle" x="343" y="-122.3" font-family="mono" font-size="14.00">F</text>
</g>
<!-- E&#45;&gt;F -->
<g id="edge3" class="edge"><title>E&#45;&gt;F</title>
<path fill="none" stroke="black" stroke-dasharray="5,2" d="M54.2314,-126C110.22,-126 241.526,-126 305.575,-126"/>
<polygon fill="black" stroke="black" points="305.622,-129.5 315.622,-126 305.622,-122.5 305.622,-129.5"/>
<text text-anchor="middle" x="185" y="-129.8" font-family="Times,serif" font-size="14.00">F is involved as base class of E</text>
</g>
</g>
</svg>
