<?xml version="1.0" encoding="UTF-8" standalone="no"?>
<!DOCTYPE svg PUBLIC "-//W3C//DTD SVG 1.1//EN"
 "http://www.w3.org/Graphics/SVG/1.1/DTD/svg11.dtd">
<!-- Generated by graphviz version 2.36.0 (20140111.2315)
 -->
<!-- Title: raw__RawDigit Pages: 1 -->
<svg width="290pt" height="170pt"
 viewBox="0.00 0.00 290.00 170.00" xmlns="http://www.w3.org/2000/svg" xmlns:xlink="http://www.w3.org/1999/xlink">
<g id="graph0" class="graph" transform="scale(1 1) rotate(0) translate(4 166)">
<title>raw__RawDigit</title>
<polygon fill="white" stroke="none" points="-4,4 -4,-166 286,-166 286,4 -4,4"/>
<!-- raw::RawDigit -->
<g id="node1" class="node"><title>raw::RawDigit</title>
<polygon fill="none" stroke="black" points="11,-133 11,-155 271,-155 271,-133 11,-133"/>
<text text-anchor="start" x="87" y="-141.3" font-family="mono" font-weight="bold" font-size="14.00">raw::RawDigit</text>
<text text-anchor="start" x="39" y="-117.8" font-family="mono" font-size="14.00">vector&lt; short &gt;</text>
<text text-anchor="start" x="169" y="-117.8" font-family="mono" font-size="14.00" fill="blue">fADC</text>
<text text-anchor="start" x="96" y="-96.8" font-family="mono" font-size="14.00">uint32_t</text>
<text text-anchor="start" x="169" y="-96.8" font-family="mono" font-size="14.00" fill="blue">fChannel</text>
<text text-anchor="start" x="14" y="-75.8" font-family="mono" font-size="14.00">short unsigned int</text>
<text text-anchor="start" x="169" y="-75.8" font-family="mono" font-size="14.00" fill="blue">fSamples</text>
<text text-anchor="start" x="113" y="-54.8" font-family="mono" font-size="14.00">double</text>
<text text-anchor="start" x="169" y="-54.8" font-family="mono" font-size="14.00" fill="blue">fPedestal</text>
<text text-anchor="start" x="113" y="-33.8" font-family="mono" font-size="14.00">double</text>
<text text-anchor="start" x="169" y="-33.8" font-family="mono" font-size="14.00" fill="blue">fSigma</text>
<text text-anchor="start" x="39" y="-12.8" font-family="mono" font-size="14.00">raw::Compress_t</text>
<text text-anchor="start" x="169" y="-12.8" font-family="mono" font-size="14.00" fill="blue">fCompression</text>
<polygon fill="none" stroke="black" points="8,-4 8,-158 274,-158 274,-4 8,-4"/>
</g>
</g>
</svg>
