<?xml version="1.0" encoding="UTF-8" standalone="no"?>
<!DOCTYPE svg PUBLIC "-//W3C//DTD SVG 1.1//EN"
 "http://www.w3.org/Graphics/SVG/1.1/DTD/svg11.dtd">
<!-- Generated by graphviz version 2.36.0 (20140111.2315)
 -->
<!-- Title: recob__Track Pages: 1 -->
<svg width="398pt" height="170pt"
 viewBox="0.00 0.00 398.00 170.00" xmlns="http://www.w3.org/2000/svg" xmlns:xlink="http://www.w3.org/1999/xlink">
<g id="graph0" class="graph" transform="scale(1 1) rotate(0) translate(4 166)">
<title>recob__Track</title>
<polygon fill="white" stroke="none" points="-4,4 -4,-166 394,-166 394,4 -4,4"/>
<!-- recob::Track -->
<g id="node1" class="node"><title>recob::Track</title>
<polygon fill="none" stroke="black" points="12,-133 12,-155 379,-155 379,-133 12,-133"/>
<text text-anchor="start" x="145.5" y="-141.3" font-family="mono" font-weight="bold" font-size="14.00">recob::Track</text>
<text text-anchor="start" x="122" y="-117.8" font-family="mono" font-size="14.00">vector&lt; TVector3 &gt;</text>
<text text-anchor="start" x="277" y="-117.8" font-family="mono" font-size="14.00" fill="blue">fXYZ</text>
<text text-anchor="start" x="122" y="-96.8" font-family="mono" font-size="14.00">vector&lt; TVector3 &gt;</text>
<text text-anchor="start" x="277" y="-96.8" font-family="mono" font-size="14.00" fill="blue">fDir</text>
<text text-anchor="start" x="56" y="-75.8" font-family="mono" font-size="14.00">vector&lt; TMatrixT&lt;double&gt; &gt;</text>
<text text-anchor="start" x="277" y="-75.8" font-family="mono" font-size="14.00" fill="blue">fCov</text>
<text text-anchor="start" x="15" y="-54.8" font-family="mono" font-size="14.00">vector&lt; std::vector&lt; double &gt; &gt;</text>
<text text-anchor="start" x="277" y="-54.8" font-family="mono" font-size="14.00" fill="blue">fdQdx</text>
<text text-anchor="start" x="138" y="-33.8" font-family="mono" font-size="14.00">vector&lt; double &gt;</text>
<text text-anchor="start" x="277" y="-33.8" font-family="mono" font-size="14.00" fill="blue">fFitMomentum</text>
<text text-anchor="start" x="246" y="-12.8" font-family="mono" font-size="14.00">int</text>
<text text-anchor="start" x="277" y="-12.8" font-family="mono" font-size="14.00" fill="blue">fID</text>
<polygon fill="none" stroke="black" points="8.5,-4 8.5,-158 381.5,-158 381.5,-4 8.5,-4"/>
</g>
</g>
</svg>
