<?xml version="1.0" encoding="UTF-8" standalone="no"?>
<!DOCTYPE svg PUBLIC "-//W3C//DTD SVG 1.1//EN"
 "http://www.w3.org/Graphics/SVG/1.1/DTD/svg11.dtd">
<!-- Generated by graphviz version 2.36.0 (20140111.2315)
 -->
<!-- Title: recoblock_simple Pages: 1 -->
<svg width="874pt" height="434pt"
 viewBox="0.00 0.00 874.00 434.11" xmlns="http://www.w3.org/2000/svg" xmlns:xlink="http://www.w3.org/1999/xlink">
<g id="graph0" class="graph" transform="scale(1 1) rotate(0) translate(4 430.112)">
<title>recoblock_simple</title>
<polygon fill="white" stroke="none" points="-4,4 -4,-430.112 870,-430.112 870,4 -4,4"/>
<!-- raw::RawDigit -->
<g id="node1" class="node"><title>raw::RawDigit</title>
<path fill="none" stroke="black" d="M694,-77.1122C694,-77.1122 594,-77.1122 594,-77.1122 588,-77.1122 582,-71.1122 582,-65.1122 582,-65.1122 582,-53.1122 582,-53.1122 582,-47.1122 588,-41.1122 594,-41.1122 594,-41.1122 694,-41.1122 694,-41.1122 700,-41.1122 706,-47.1122 706,-53.1122 706,-53.1122 706,-65.1122 706,-65.1122 706,-71.1122 700,-77.1122 694,-77.1122"/>
<text text-anchor="middle" x="644" y="-55.4122" font-family="mono" font-size="14.00">raw::RawDigit</text>
</g>
<!-- recob::Track -->
<g id="node2" class="node"><title>recob::Track</title>
<path fill="none" stroke="black" d="M690,-253.112C690,-253.112 598,-253.112 598,-253.112 592,-253.112 586,-247.112 586,-241.112 586,-241.112 586,-229.112 586,-229.112 586,-223.112 592,-217.112 598,-217.112 598,-217.112 690,-217.112 690,-217.112 696,-217.112 702,-223.112 702,-229.112 702,-229.112 702,-241.112 702,-241.112 702,-247.112 696,-253.112 690,-253.112"/>
<text text-anchor="middle" x="644" y="-231.412" font-family="mono" font-size="14.00">recob::Track</text>
</g>
<!-- recob::Vertex -->
<g id="node9" class="node"><title>recob::Vertex</title>
<path fill="none" stroke="black" d="M854,-155.112C854,-155.112 754,-155.112 754,-155.112 748,-155.112 742,-149.112 742,-143.112 742,-143.112 742,-131.112 742,-131.112 742,-125.112 748,-119.112 754,-119.112 754,-119.112 854,-119.112 854,-119.112 860,-119.112 866,-125.112 866,-131.112 866,-131.112 866,-143.112 866,-143.112 866,-149.112 860,-155.112 854,-155.112"/>
<text text-anchor="middle" x="804" y="-133.412" font-family="mono" font-size="14.00">recob::Vertex</text>
</g>
<!-- recob::Track&#45;&gt;recob::Vertex -->
<g id="edge13" class="edge"><title>recob::Track&#45;&gt;recob::Vertex</title>
<path fill="none" stroke="orange" d="M683.047,-211.513C707.89,-196.105 740.2,-176.064 765.028,-160.664"/>
<polygon fill="orange" stroke="orange" points="681.002,-208.663 674.348,-216.909 684.691,-214.612 681.002,-208.663"/>
<polygon fill="orange" stroke="orange" points="767.156,-163.463 773.809,-155.218 763.466,-157.515 767.156,-163.463"/>
</g>
<!-- recob::Wire -->
<g id="node3" class="node"><title>recob::Wire</title>
<path fill="none" stroke="black" d="M508.5,-96.1122C508.5,-96.1122 425.5,-96.1122 425.5,-96.1122 419.5,-96.1122 413.5,-90.1122 413.5,-84.1122 413.5,-84.1122 413.5,-72.1122 413.5,-72.1122 413.5,-66.1122 419.5,-60.1122 425.5,-60.1122 425.5,-60.1122 508.5,-60.1122 508.5,-60.1122 514.5,-60.1122 520.5,-66.1122 520.5,-72.1122 520.5,-72.1122 520.5,-84.1122 520.5,-84.1122 520.5,-90.1122 514.5,-96.1122 508.5,-96.1122"/>
<text text-anchor="middle" x="467" y="-74.4122" font-family="mono" font-size="14.00">recob::Wire</text>
</g>
<!-- recob::Wire&#45;&gt;raw::RawDigit -->
<g id="edge1" class="edge"><title>recob::Wire&#45;&gt;raw::RawDigit</title>
<path fill="none" stroke="black" d="M520.506,-72.4116C536.665,-70.6572 554.73,-68.6958 571.918,-66.8296"/>
<polygon fill="black" stroke="black" points="572.353,-70.3031 581.916,-65.7441 571.597,-63.344 572.353,-70.3031"/>
</g>
<!-- recob::Shower -->
<g id="node4" class="node"><title>recob::Shower</title>
<path fill="none" stroke="black" d="M694,-155.112C694,-155.112 594,-155.112 594,-155.112 588,-155.112 582,-149.112 582,-143.112 582,-143.112 582,-131.112 582,-131.112 582,-125.112 588,-119.112 594,-119.112 594,-119.112 694,-119.112 694,-119.112 700,-119.112 706,-125.112 706,-131.112 706,-131.112 706,-143.112 706,-143.112 706,-149.112 700,-155.112 694,-155.112"/>
<text text-anchor="middle" x="644" y="-133.412" font-family="mono" font-size="14.00">recob::Shower</text>
</g>
<!-- recob::Shower&#45;&gt;recob::Vertex -->
<g id="edge10" class="edge"><title>recob::Shower&#45;&gt;recob::Vertex</title>
<path fill="none" stroke="orange" d="M716.366,-137.112C721.411,-137.112 726.498,-137.112 731.543,-137.112"/>
<polygon fill="orange" stroke="orange" points="716.087,-133.612 706.087,-137.112 716.087,-140.612 716.087,-133.612"/>
<polygon fill="orange" stroke="orange" points="731.815,-140.612 741.815,-137.112 731.815,-133.612 731.815,-140.612"/>
</g>
<!-- recob::Hit -->
<g id="node5" class="node"><title>recob::Hit</title>
<path fill="none" stroke="black" d="M310.5,-115.112C310.5,-115.112 235.5,-115.112 235.5,-115.112 229.5,-115.112 223.5,-109.112 223.5,-103.112 223.5,-103.112 223.5,-91.1122 223.5,-91.1122 223.5,-85.1122 229.5,-79.1122 235.5,-79.1122 235.5,-79.1122 310.5,-79.1122 310.5,-79.1122 316.5,-79.1122 322.5,-85.1122 322.5,-91.1122 322.5,-91.1122 322.5,-103.112 322.5,-103.112 322.5,-109.112 316.5,-115.112 310.5,-115.112"/>
<text text-anchor="middle" x="273" y="-93.4122" font-family="mono" font-size="14.00">recob::Hit</text>
</g>
<!-- recob::Hit&#45;&gt;raw::RawDigit -->
<g id="edge3" class="edge"><title>recob::Hit&#45;&gt;raw::RawDigit</title>
<path fill="none" stroke="black" d="M308.864,-78.9691C330.9,-68.5436 360.345,-56.4814 388,-51.1122 449.247,-39.2212 520.296,-42.8378 571.818,-48.4966"/>
<polygon fill="black" stroke="black" points="571.519,-51.9852 581.853,-49.6516 572.319,-45.0311 571.519,-51.9852"/>
</g>
<!-- recob::Hit&#45;&gt;recob::Track -->
<g id="edge15" class="edge"><title>recob::Hit&#45;&gt;recob::Track</title>
<path fill="none" stroke="orange" d="M332.821,-103.005C401.255,-110.562 509.526,-124.894 546,-143.112 577.162,-158.677 605.124,-187.611 622.928,-208.89"/>
<polygon fill="orange" stroke="orange" points="332.932,-99.4963 322.612,-101.895 332.176,-106.455 332.932,-99.4963"/>
<polygon fill="orange" stroke="orange" points="620.434,-211.37 629.465,-216.91 625.86,-206.947 620.434,-211.37"/>
</g>
<!-- recob::Hit&#45;&gt;recob::Wire -->
<g id="edge2" class="edge"><title>recob::Hit&#45;&gt;recob::Wire</title>
<path fill="none" stroke="black" d="M322.946,-92.2685C347.369,-89.8517 377.19,-86.9007 403.271,-84.3197"/>
<polygon fill="black" stroke="black" points="403.832,-87.7814 413.439,-83.3135 403.143,-80.8154 403.832,-87.7814"/>
</g>
<!-- recob::SpacePoint -->
<g id="node8" class="node"><title>recob::SpacePoint</title>
<path fill="none" stroke="black" d="M533.5,-188.112C533.5,-188.112 400.5,-188.112 400.5,-188.112 394.5,-188.112 388.5,-182.112 388.5,-176.112 388.5,-176.112 388.5,-164.112 388.5,-164.112 388.5,-158.112 394.5,-152.112 400.5,-152.112 400.5,-152.112 533.5,-152.112 533.5,-152.112 539.5,-152.112 545.5,-158.112 545.5,-164.112 545.5,-164.112 545.5,-176.112 545.5,-176.112 545.5,-182.112 539.5,-188.112 533.5,-188.112"/>
<text text-anchor="middle" x="467" y="-166.412" font-family="mono" font-size="14.00">recob::SpacePoint</text>
</g>
<!-- recob::Hit&#45;&gt;recob::SpacePoint -->
<g id="edge9" class="edge"><title>recob::Hit&#45;&gt;recob::SpacePoint</title>
<path fill="none" stroke="orange" d="M331.065,-118.809C355.632,-128.149 384.295,-139.047 408.869,-148.39"/>
<polygon fill="orange" stroke="orange" points="332.052,-115.44 321.461,-115.157 329.564,-121.983 332.052,-115.44"/>
<polygon fill="orange" stroke="orange" points="407.829,-151.739 418.42,-152.022 410.317,-145.196 407.829,-151.739"/>
</g>
<!-- recob::Hit&#45;&gt;recob::Vertex -->
<g id="edge19" class="edge"><title>recob::Hit&#45;&gt;recob::Vertex</title>
<path fill="none" stroke="orange" d="M310.557,-73.8446C332.185,-61.3806 360.628,-47.1724 388,-40.1122 524.898,-4.80184 576.48,24.5652 706,-32.1122 742.201,-47.9537 770.895,-84.7091 787.415,-110.234"/>
<polygon fill="orange" stroke="orange" points="308.563,-70.9576 301.729,-79.0535 312.12,-76.9865 308.563,-70.9576"/>
<polygon fill="orange" stroke="orange" points="784.469,-112.124 792.743,-118.741 790.402,-108.409 784.469,-112.124"/>
</g>
<!-- recob::Cluster -->
<g id="node6" class="node"><title>recob::Cluster</title>
<path fill="none" stroke="black" d="M133,-203.112C133,-203.112 25,-203.112 25,-203.112 19,-203.112 13,-197.112 13,-191.112 13,-191.112 13,-179.112 13,-179.112 13,-173.112 19,-167.112 25,-167.112 25,-167.112 133,-167.112 133,-167.112 139,-167.112 145,-173.112 145,-179.112 145,-179.112 145,-191.112 145,-191.112 145,-197.112 139,-203.112 133,-203.112"/>
<text text-anchor="middle" x="79" y="-181.412" font-family="mono" font-size="14.00">recob::Cluster</text>
</g>
<!-- recob::Cluster&#45;&gt;recob::Track -->
<g id="edge7" class="edge"><title>recob::Cluster&#45;&gt;recob::Track</title>
<path fill="none" stroke="orange" d="M120.747,-207.836C141.904,-218.362 168.587,-229.716 194,-235.112 326.942,-263.342 487.06,-253.121 575.678,-243.728"/>
<polygon fill="orange" stroke="orange" points="122.237,-204.668 111.739,-203.24 119.055,-210.903 122.237,-204.668"/>
<polygon fill="orange" stroke="orange" points="576.299,-247.181 585.861,-242.619 575.541,-240.222 576.299,-247.181"/>
</g>
<!-- recob::Cluster&#45;&gt;recob::Hit -->
<g id="edge18" class="edge"><title>recob::Cluster&#45;&gt;recob::Hit</title>
<path fill="none" stroke="orange" d="M128.536,-162.867C157.53,-149.578 194.242,-132.751 223.27,-119.447"/>
<polygon fill="orange" stroke="orange" points="126.95,-159.743 119.317,-167.092 129.866,-166.107 126.95,-159.743"/>
<polygon fill="orange" stroke="orange" points="224.773,-122.608 232.406,-115.26 221.857,-116.244 224.773,-122.608"/>
</g>
<!-- recob::PFParticle -->
<g id="node7" class="node"><title>recob::PFParticle</title>
<path fill="none" stroke="black" d="M339.5,-226.112C339.5,-226.112 206.5,-226.112 206.5,-226.112 200.5,-226.112 194.5,-220.112 194.5,-214.112 194.5,-214.112 194.5,-202.112 194.5,-202.112 194.5,-196.112 200.5,-190.112 206.5,-190.112 206.5,-190.112 339.5,-190.112 339.5,-190.112 345.5,-190.112 351.5,-196.112 351.5,-202.112 351.5,-202.112 351.5,-214.112 351.5,-214.112 351.5,-220.112 345.5,-226.112 339.5,-226.112"/>
<text text-anchor="middle" x="273" y="-204.412" font-family="mono" font-size="14.00">recob::PFParticle</text>
</g>
<!-- recob::Cluster&#45;&gt;recob::PFParticle -->
<g id="edge14" class="edge"><title>recob::Cluster&#45;&gt;recob::PFParticle</title>
<path fill="none" stroke="orange" d="M155.204,-194.121C164.767,-195.267 174.619,-196.447 184.355,-197.613"/>
<polygon fill="orange" stroke="orange" points="155.348,-190.613 145.002,-192.899 154.515,-197.564 155.348,-190.613"/>
<polygon fill="orange" stroke="orange" points="184.097,-201.107 194.442,-198.821 184.93,-194.157 184.097,-201.107"/>
</g>
<!-- recob::Cluster&#45;&gt;recob::SpacePoint -->
<g id="edge16" class="edge"><title>recob::Cluster&#45;&gt;recob::SpacePoint</title>
<path fill="none" stroke="orange" d="M155.139,-182.192C219.055,-179.709 310.916,-176.139 378.207,-173.524"/>
<polygon fill="orange" stroke="orange" points="154.9,-178.699 145.043,-182.585 155.172,-185.694 154.9,-178.699"/>
<polygon fill="orange" stroke="orange" points="378.512,-177.015 388.368,-173.129 378.24,-170.02 378.512,-177.015"/>
</g>
<!-- recob::PFParticle&#45;&gt;recob::Track -->
<g id="edge8" class="edge"><title>recob::PFParticle&#45;&gt;recob::Track</title>
<path fill="none" stroke="orange" d="M361.845,-214.54C427.404,-219.337 515.649,-225.794 575.671,-230.186"/>
<polygon fill="orange" stroke="orange" points="362.033,-211.044 351.805,-213.805 361.522,-218.026 362.033,-211.044"/>
<polygon fill="orange" stroke="orange" points="575.566,-233.687 585.795,-230.926 576.077,-226.706 575.566,-233.687"/>
</g>
<!-- recob::PFParticle&#45;&gt;recob::SpacePoint -->
<g id="edge11" class="edge"><title>recob::PFParticle&#45;&gt;recob::SpacePoint</title>
<path fill="none" stroke="orange" d="M361.605,-190.774C367.209,-189.665 372.851,-188.548 378.454,-187.439"/>
<polygon fill="orange" stroke="orange" points="360.67,-187.391 351.54,-192.766 362.03,-194.257 360.67,-187.391"/>
<polygon fill="orange" stroke="orange" points="379.352,-190.829 388.482,-185.454 377.993,-183.962 379.352,-190.829"/>
</g>
<!-- recob::SpacePoint&#45;&gt;recob::Track -->
<g id="edge17" class="edge"><title>recob::SpacePoint&#45;&gt;recob::Track</title>
<path fill="none" stroke="orange" d="M526.361,-191.789C545.196,-198.785 566.065,-206.536 584.882,-213.526"/>
<polygon fill="orange" stroke="orange" points="527.34,-188.419 516.747,-188.218 524.903,-194.981 527.34,-188.419"/>
<polygon fill="orange" stroke="orange" points="583.921,-216.902 594.514,-217.103 586.359,-210.34 583.921,-216.902"/>
</g>
<!-- recob::EndPoint2D -->
<g id="node10" class="node"><title>recob::EndPoint2D</title>
<path fill="none" stroke="black" d="M145.5,-115.112C145.5,-115.112 12.5,-115.112 12.5,-115.112 6.5,-115.112 0.5,-109.112 0.5,-103.112 0.5,-103.112 0.5,-91.1122 0.5,-91.1122 0.5,-85.1122 6.5,-79.1122 12.5,-79.1122 12.5,-79.1122 145.5,-79.1122 145.5,-79.1122 151.5,-79.1122 157.5,-85.1122 157.5,-91.1122 157.5,-91.1122 157.5,-103.112 157.5,-103.112 157.5,-109.112 151.5,-115.112 145.5,-115.112"/>
<text text-anchor="middle" x="79" y="-93.4122" font-family="mono" font-size="14.00">recob::EndPoint2D</text>
</g>
<!-- recob::EndPoint2D&#45;&gt;recob::Hit -->
<g id="edge12" class="edge"><title>recob::EndPoint2D&#45;&gt;recob::Hit</title>
<path fill="none" stroke="orange" d="M167.798,-97.1122C183.196,-97.1122 198.878,-97.1122 213.243,-97.1122"/>
<polygon fill="orange" stroke="orange" points="167.54,-93.6123 157.54,-97.1122 167.54,-100.612 167.54,-93.6123"/>
<polygon fill="orange" stroke="orange" points="213.448,-100.612 223.448,-97.1122 213.448,-93.6123 213.448,-100.612"/>
</g>
<!-- anab::Calorimetry -->
<g id="node11" class="node"><title>anab::Calorimetry</title>
<path fill="none" stroke="black" d="M533.5,-426.112C533.5,-426.112 400.5,-426.112 400.5,-426.112 394.5,-426.112 388.5,-420.112 388.5,-414.112 388.5,-414.112 388.5,-402.112 388.5,-402.112 388.5,-396.112 394.5,-390.112 400.5,-390.112 400.5,-390.112 533.5,-390.112 533.5,-390.112 539.5,-390.112 545.5,-396.112 545.5,-402.112 545.5,-402.112 545.5,-414.112 545.5,-414.112 545.5,-420.112 539.5,-426.112 533.5,-426.112"/>
<text text-anchor="middle" x="467" y="-404.412" font-family="mono" font-size="14.00">anab::Calorimetry</text>
</g>
<!-- anab::Calorimetry&#45;&gt;recob::Track -->
<g id="edge6" class="edge"><title>anab::Calorimetry&#45;&gt;recob::Track</title>
<path fill="none" stroke="orange" d="M540.982,-384.698C542.709,-383.557 544.385,-382.362 546,-381.112 586.997,-349.372 616.389,-295.213 631.464,-262.534"/>
<polygon fill="orange" stroke="orange" points="538.843,-381.895 531.987,-389.972 542.384,-387.933 538.843,-381.895"/>
<polygon fill="orange" stroke="orange" points="634.782,-263.687 635.679,-253.13 628.395,-260.823 634.782,-263.687"/>
</g>
<!-- anab::CosmicTag -->
<g id="node12" class="node"><title>anab::CosmicTag</title>
<path fill="none" stroke="black" d="M525,-372.112C525,-372.112 409,-372.112 409,-372.112 403,-372.112 397,-366.112 397,-360.112 397,-360.112 397,-348.112 397,-348.112 397,-342.112 403,-336.112 409,-336.112 409,-336.112 525,-336.112 525,-336.112 531,-336.112 537,-342.112 537,-348.112 537,-348.112 537,-360.112 537,-360.112 537,-366.112 531,-372.112 525,-372.112"/>
<text text-anchor="middle" x="467" y="-350.412" font-family="mono" font-size="14.00">anab::CosmicTag</text>
</g>
<!-- anab::CosmicTag&#45;&gt;recob::Track -->
<g id="edge4" class="edge"><title>anab::CosmicTag&#45;&gt;recob::Track</title>
<path fill="none" stroke="orange" d="M537.888,-331.642C540.674,-330.208 543.39,-328.698 546,-327.112 575.242,-309.341 602.974,-281.526 621.237,-261.129"/>
<polygon fill="orange" stroke="orange" points="536.321,-328.511 528.794,-335.968 539.328,-334.832 536.321,-328.511"/>
<polygon fill="orange" stroke="orange" points="624.021,-263.263 627.99,-253.44 618.762,-258.644 624.021,-263.263"/>
</g>
<!-- anab::ParticleID -->
<g id="node13" class="node"><title>anab::ParticleID</title>
<path fill="none" stroke="black" d="M529.5,-318.112C529.5,-318.112 404.5,-318.112 404.5,-318.112 398.5,-318.112 392.5,-312.112 392.5,-306.112 392.5,-306.112 392.5,-294.112 392.5,-294.112 392.5,-288.112 398.5,-282.112 404.5,-282.112 404.5,-282.112 529.5,-282.112 529.5,-282.112 535.5,-282.112 541.5,-288.112 541.5,-294.112 541.5,-294.112 541.5,-306.112 541.5,-306.112 541.5,-312.112 535.5,-318.112 529.5,-318.112"/>
<text text-anchor="middle" x="467" y="-296.412" font-family="mono" font-size="14.00">anab::ParticleID</text>
</g>
<!-- anab::ParticleID&#45;&gt;recob::Track -->
<g id="edge5" class="edge"><title>anab::ParticleID&#45;&gt;recob::Track</title>
<path fill="none" stroke="orange" d="M526.361,-278.435C545.196,-271.439 566.065,-263.688 584.882,-256.699"/>
<polygon fill="orange" stroke="orange" points="524.903,-275.243 516.747,-282.006 527.34,-281.805 524.903,-275.243"/>
<polygon fill="orange" stroke="orange" points="586.359,-259.884 594.514,-253.121 583.921,-253.322 586.359,-259.884"/>
</g>
</g>
</svg>
