<?xml version="1.0" encoding="UTF-8" standalone="no"?>
<!DOCTYPE svg PUBLIC "-//W3C//DTD SVG 1.1//EN"
 "http://www.w3.org/Graphics/SVG/1.1/DTD/svg11.dtd">
<!-- Generated by graphviz version 2.36.0 (20140111.2315)
 -->
<!-- Title: recob__Hit Pages: 1 -->
<svg width="554pt" height="422pt"
 viewBox="0.00 0.00 554.00 422.00" xmlns="http://www.w3.org/2000/svg" xmlns:xlink="http://www.w3.org/1999/xlink">
<g id="graph0" class="graph" transform="scale(1 1) rotate(0) translate(4 418)">
<title>recob__Hit</title>
<polygon fill="white" stroke="none" points="-4,4 -4,-418 550,-418 550,4 -4,4"/>
<!-- recob::Hit -->
<g id="node1" class="node"><title>recob::Hit</title>
<polygon fill="none" stroke="black" points="12,-385 12,-407 337,-407 337,-385 12,-385"/>
<text text-anchor="start" x="133" y="-393.3" font-family="mono" font-weight="bold" font-size="14.00">recob::Hit</text>
<text text-anchor="start" x="72" y="-369.8" font-family="mono" font-size="14.00">vector&lt; double &gt;</text>
<text text-anchor="start" x="211" y="-369.8" font-family="mono" font-size="14.00" fill="blue">fHitSignal</text>
<text text-anchor="start" x="155" y="-348.8" font-family="mono" font-size="14.00">double</text>
<text text-anchor="start" x="211" y="-348.8" font-family="mono" font-size="14.00" fill="blue">fStartTime</text>
<text text-anchor="start" x="155" y="-327.8" font-family="mono" font-size="14.00">double</text>
<text text-anchor="start" x="211" y="-327.8" font-family="mono" font-size="14.00" fill="blue">fSigmaStartTime</text>
<text text-anchor="start" x="155" y="-306.8" font-family="mono" font-size="14.00">double</text>
<text text-anchor="start" x="211" y="-306.8" font-family="mono" font-size="14.00" fill="blue">fEndTime</text>
<text text-anchor="start" x="155" y="-285.8" font-family="mono" font-size="14.00">double</text>
<text text-anchor="start" x="211" y="-285.8" font-family="mono" font-size="14.00" fill="blue">fSigmaEndTime</text>
<text text-anchor="start" x="155" y="-264.8" font-family="mono" font-size="14.00">double</text>
<text text-anchor="start" x="211" y="-264.8" font-family="mono" font-size="14.00" fill="blue">fPeakTime</text>
<text text-anchor="start" x="155" y="-243.8" font-family="mono" font-size="14.00">double</text>
<text text-anchor="start" x="211" y="-243.8" font-family="mono" font-size="14.00" fill="blue">fSigmaPeakTime</text>
<text text-anchor="start" x="155" y="-222.8" font-family="mono" font-size="14.00">double</text>
<text text-anchor="start" x="211" y="-222.8" font-family="mono" font-size="14.00" fill="blue">fCharge</text>
<text text-anchor="start" x="155" y="-201.8" font-family="mono" font-size="14.00">double</text>
<text text-anchor="start" x="211" y="-201.8" font-family="mono" font-size="14.00" fill="blue">fMaxCharge</text>
<text text-anchor="start" x="155" y="-180.8" font-family="mono" font-size="14.00">double</text>
<text text-anchor="start" x="211" y="-180.8" font-family="mono" font-size="14.00" fill="blue">fSigmaCharge</text>
<text text-anchor="start" x="155" y="-159.8" font-family="mono" font-size="14.00">double</text>
<text text-anchor="start" x="211" y="-159.8" font-family="mono" font-size="14.00" fill="blue">fSigmaMaxCharge</text>
<text text-anchor="start" x="180" y="-138.8" font-family="mono" font-size="14.00">int</text>
<text text-anchor="start" x="211" y="-138.8" font-family="mono" font-size="14.00" fill="blue">fMultiplicity</text>
<text text-anchor="start" x="155" y="-117.8" font-family="mono" font-size="14.00">double</text>
<text text-anchor="start" x="211" y="-117.8" font-family="mono" font-size="14.00" fill="blue">fGoodnessOfFit</text>
<text text-anchor="start" x="31" y="-96.8" font-family="mono" font-size="14.00">art::Ptr&lt;recob::Wire&gt;</text>
<text text-anchor="start" x="211" y="-96.8" font-family="mono" font-size="14.00" fill="blue">fWire</text>
<text text-anchor="start" x="15" y="-75.8" font-family="mono" font-size="14.00">art::Ptr&lt;raw::RawDigit&gt;</text>
<text text-anchor="start" x="211" y="-75.8" font-family="mono" font-size="14.00" fill="blue">fRawDigit</text>
<text text-anchor="start" x="114" y="-54.8" font-family="mono" font-size="14.00">geo::View_t</text>
<text text-anchor="start" x="211" y="-54.8" font-family="mono" font-size="14.00" fill="blue">fView</text>
<text text-anchor="start" x="89" y="-33.8" font-family="mono" font-size="14.00">geo::SigType_t</text>
<text text-anchor="start" x="211" y="-33.8" font-family="mono" font-size="14.00" fill="blue">fSignalType</text>
<text text-anchor="start" x="114" y="-12.8" font-family="mono" font-size="14.00">geo::WireID</text>
<text text-anchor="start" x="211" y="-12.8" font-family="mono" font-size="14.00" fill="blue">fWireID</text>
<polygon fill="none" stroke="black" points="8.5,-4 8.5,-410 339.5,-410 339.5,-4 8.5,-4"/>
</g>
<!-- recob::Wire -->
<g id="node2" class="node"><title>recob::Wire</title>
<ellipse fill="none" stroke="black" cx="465" cy="-117" rx="69.5877" ry="18"/>
<text text-anchor="middle" x="465" y="-113.3" font-family="mono" font-size="14.00">recob::Wire</text>
</g>
<!-- recob::Hit&#45;&gt;recob::Wire -->
<g id="edge1" class="edge"><title>recob::Hit:fWire&#45;&gt;recob::Wire</title>
<path fill="none" stroke="black" d="M338,-100C357.831,-100 379.26,-102.094 398.725,-104.812"/>
<polygon fill="black" stroke="black" points="398.302,-108.287 408.705,-106.282 399.322,-101.362 398.302,-108.287"/>
</g>
<!-- raw::RawDigit -->
<g id="node3" class="node"><title>raw::RawDigit</title>
<ellipse fill="none" stroke="black" cx="465" cy="-63" rx="80.6858" ry="18"/>
<text text-anchor="middle" x="465" y="-59.3" font-family="mono" font-size="14.00">raw::RawDigit</text>
</g>
<!-- recob::Hit&#45;&gt;raw::RawDigit -->
<g id="edge2" class="edge"><title>recob::Hit:fRawDigit&#45;&gt;raw::RawDigit</title>
<path fill="none" stroke="black" d="M338,-79C355.327,-79 373.888,-77.4925 391.294,-75.4031"/>
<polygon fill="black" stroke="black" points="391.915,-78.8523 401.39,-74.1125 391.027,-71.9088 391.915,-78.8523"/>
</g>
</g>
</svg>
