<?xml version="1.0" encoding="UTF-8" standalone="no"?>
<!DOCTYPE svg PUBLIC "-//W3C//DTD SVG 1.1//EN"
 "http://www.w3.org/Graphics/SVG/1.1/DTD/svg11.dtd">
<!-- Generated by graphviz version 2.36.0 (20140111.2315)
 -->
<!-- Title: recob__Wire Pages: 1 -->
<svg width="538pt" height="148pt"
 viewBox="0.00 0.00 538.00 148.00" xmlns="http://www.w3.org/2000/svg" xmlns:xlink="http://www.w3.org/1999/xlink">
<g id="graph0" class="graph" transform="scale(1 1) rotate(0) translate(4 144)">
<title>recob__Wire</title>
<polygon fill="white" stroke="none" points="-4,4 -4,-144 534,-144 534,4 -4,4"/>
<!-- recob::Wire -->
<g id="node1" class="node"><title>recob::Wire</title>
<polygon fill="none" stroke="black" points="12,-111 12,-133 321,-133 321,-111 12,-111"/>
<text text-anchor="start" x="121" y="-119.3" font-family="mono" font-weight="bold" font-size="14.00">recob::Wire</text>
<text text-anchor="start" x="15" y="-95.8" font-family="mono" font-size="14.00">lar::sparse_vector&lt;float&gt;</text>
<text text-anchor="start" x="228" y="-95.8" font-family="mono" font-size="14.00" fill="blue">fSignalROI</text>
<text text-anchor="start" x="32" y="-74.8" font-family="mono" font-size="14.00">art::Ptr&lt;raw::RawDigit&gt;</text>
<text text-anchor="start" x="228" y="-74.8" font-family="mono" font-size="14.00" fill="blue">fRawDigit</text>
<text text-anchor="start" x="131" y="-53.8" font-family="mono" font-size="14.00">geo::View_t</text>
<text text-anchor="start" x="228" y="-53.8" font-family="mono" font-size="14.00" fill="blue">fView</text>
<text text-anchor="start" x="106" y="-32.8" font-family="mono" font-size="14.00">geo::SigType_t</text>
<text text-anchor="start" x="228" y="-32.8" font-family="mono" font-size="14.00" fill="blue">fSignalType</text>
<text text-anchor="start" x="122" y="-11.8" font-family="mono" font-size="14.00">unsigned int</text>
<text text-anchor="start" x="228" y="-11.8" font-family="mono" font-size="14.00" fill="blue">fMaxSamples</text>
<polygon fill="none" stroke="black" points="8.5,-3.5 8.5,-136.5 323.5,-136.5 323.5,-3.5 8.5,-3.5"/>
</g>
<!-- raw::RawDigit -->
<g id="node2" class="node"><title>raw::RawDigit</title>
<ellipse fill="none" stroke="black" cx="449" cy="-79" rx="80.6858" ry="18"/>
<text text-anchor="middle" x="449" y="-75.3" font-family="mono" font-size="14.00">raw::RawDigit</text>
</g>
<!-- recob::Wire&#45;&gt;raw::RawDigit -->
<g id="edge1" class="edge"><title>recob::Wire:fRawDigit&#45;&gt;raw::RawDigit</title>
<path fill="none" stroke="black" d="M322,-79C333.707,-79 346.025,-79 358.188,-79"/>
<polygon fill="black" stroke="black" points="358.351,-82.5001 368.351,-79 358.351,-75.5001 358.351,-82.5001"/>
</g>
</g>
</svg>
