<?xml version="1.0" encoding="UTF-8" standalone="no"?>
<!DOCTYPE svg PUBLIC "-//W3C//DTD SVG 1.1//EN"
 "http://www.w3.org/Graphics/SVG/1.1/DTD/svg11.dtd">
<!-- Generated by graphviz version 2.36.0 (20140111.2315)
 -->
<!-- Title: recob__EndPoint2D Pages: 1 -->
<svg width="232pt" height="170pt"
 viewBox="0.00 0.00 232.00 170.00" xmlns="http://www.w3.org/2000/svg" xmlns:xlink="http://www.w3.org/1999/xlink">
<g id="graph0" class="graph" transform="scale(1 1) rotate(0) translate(4 166)">
<title>recob__EndPoint2D</title>
<polygon fill="white" stroke="none" points="-4,4 -4,-166 228,-166 228,4 -4,4"/>
<!-- recob::EndPoint2D -->
<g id="node1" class="node"><title>recob::EndPoint2D</title>
<polygon fill="none" stroke="black" points="11,-133 11,-155 213,-155 213,-133 11,-133"/>
<text text-anchor="start" x="41.5" y="-141.3" font-family="mono" font-weight="bold" font-size="14.00">recob::EndPoint2D</text>
<text text-anchor="start" x="55" y="-117.8" font-family="mono" font-size="14.00">double</text>
<text text-anchor="start" x="111" y="-117.8" font-family="mono" font-size="14.00" fill="blue">fDriftTime</text>
<text text-anchor="start" x="14" y="-96.8" font-family="mono" font-size="14.00">geo::WireID</text>
<text text-anchor="start" x="111" y="-96.8" font-family="mono" font-size="14.00" fill="blue">fWireID</text>
<text text-anchor="start" x="80" y="-75.8" font-family="mono" font-size="14.00">int</text>
<text text-anchor="start" x="111" y="-75.8" font-family="mono" font-size="14.00" fill="blue">fID</text>
<text text-anchor="start" x="55" y="-54.8" font-family="mono" font-size="14.00">double</text>
<text text-anchor="start" x="111" y="-54.8" font-family="mono" font-size="14.00" fill="blue">fStrength</text>
<text text-anchor="start" x="14" y="-33.8" font-family="mono" font-size="14.00">geo::View_t</text>
<text text-anchor="start" x="111" y="-33.8" font-family="mono" font-size="14.00" fill="blue">fView</text>
<text text-anchor="start" x="55" y="-12.8" font-family="mono" font-size="14.00">double</text>
<text text-anchor="start" x="111" y="-12.8" font-family="mono" font-size="14.00" fill="blue">fTotalCharge</text>
<polygon fill="none" stroke="black" points="8,-4 8,-158 216,-158 216,-4 8,-4"/>
</g>
</g>
</svg>
