<?xml version="1.0" encoding="UTF-8" standalone="no"?>
<!DOCTYPE svg PUBLIC "-//W3C//DTD SVG 1.1//EN"
 "http://www.w3.org/Graphics/SVG/1.1/DTD/svg11.dtd">
<!-- Generated by graphviz version 2.36.0 (20140111.2315)
 -->
<!-- Title: recob__Shower Pages: 1 -->
<svg width="274pt" height="170pt"
 viewBox="0.00 0.00 274.00 170.00" xmlns="http://www.w3.org/2000/svg" xmlns:xlink="http://www.w3.org/1999/xlink">
<g id="graph0" class="graph" transform="scale(1 1) rotate(0) translate(4 166)">
<title>recob__Shower</title>
<polygon fill="white" stroke="none" points="-4,4 -4,-166 270,-166 270,4 -4,4"/>
<!-- recob::Shower -->
<g id="node1" class="node"><title>recob::Shower</title>
<polygon fill="none" stroke="black" points="12,-133 12,-155 255,-155 255,-133 12,-133"/>
<text text-anchor="start" x="79.5" y="-141.3" font-family="mono" font-weight="bold" font-size="14.00">recob::Shower</text>
<text text-anchor="start" x="65" y="-117.8" font-family="mono" font-size="14.00">int</text>
<text text-anchor="start" x="96" y="-117.8" font-family="mono" font-size="14.00" fill="blue">fID</text>
<text text-anchor="start" x="23" y="-96.8" font-family="mono" font-size="14.00">TVector3</text>
<text text-anchor="start" x="96" y="-96.8" font-family="mono" font-size="14.00" fill="blue">fDCosStart</text>
<text text-anchor="start" x="23" y="-75.8" font-family="mono" font-size="14.00">TVector3</text>
<text text-anchor="start" x="96" y="-75.8" font-family="mono" font-size="14.00" fill="blue">fSigmaDCosStart</text>
<text text-anchor="start" x="15" y="-54.8" font-family="mono" font-size="14.00">double[2]</text>
<text text-anchor="start" x="96" y="-54.8" font-family="mono" font-size="14.00" fill="blue">fMaxTransverseWidth</text>
<text text-anchor="start" x="40" y="-33.8" font-family="mono" font-size="14.00">double</text>
<text text-anchor="start" x="96" y="-33.8" font-family="mono" font-size="14.00" fill="blue">fDistanceMaxWidth</text>
<text text-anchor="start" x="40" y="-12.8" font-family="mono" font-size="14.00">double</text>
<text text-anchor="start" x="96" y="-12.8" font-family="mono" font-size="14.00" fill="blue">fTotalCharge</text>
<polygon fill="none" stroke="black" points="8.5,-4 8.5,-158 257.5,-158 257.5,-4 8.5,-4"/>
</g>
</g>
</svg>
